# xmcd CD database file
#
# Track frame offsets:
#	150
#	25485
#	52134
#	73278
#	102060
#	125207
#	148261
#	177340
#	200287
#	227200
#	253865
#	285917
#
# Disc length: 4096 seconds
#
# Revision: 0
# Processed by: cddbd v1.5.2PL0 Copyright (c) Steve Scherf et al.
# Submitted via: CDex 1.50
#
DISCID=bf0ffe0c
DTITLE=The Joe Harriott Quintett_CD2 - Southern Horizonz, Free form, Abstract_Shaw,Keane,Goode,South,Smythe,Orr,Seamen
DYEAR=2014
DGENRE=Jazz
TTITLE0=Free Form_Parallel
TTITLE1=Straight Lines
TTITLE2=Calypso Sketches
TTITLE3=Tempo
TTITLE4=Abstract_Tonal
TTITLE5=Pictures
TTITLE6=Idioms
TTITLE7=Compound
TTITLE8=Subject
TTITLE9=Shadows
TTITLE10=Oleo
TTITLE11=Modal
EXTD=YEAR: 2014
EXTT0=
EXTT1=
EXTT2=
EXTT3=
EXTT4=
EXTT5=
EXTT6=
EXTT7=
EXTT8=
EXTT9=
EXTT10=
EXTT11=
PLAYORDER=
